<?xml version="1.0" encoding="UTF-8"?>
<svg width="158px" height="121px" viewBox="0 0 158 121" version="1.1" xmlns="http://www.w3.org/2000/svg" xmlns:xlink="http://www.w3.org/1999/xlink">
    <!-- Generator: Sketch 52.5 (67469) - http://www.bohemiancoding.com/sketch -->
    <title>doctor_sitting</title>
    <desc>Created with Sketch.</desc>
    <g id="Page-1" stroke="none" stroke-width="1" fill="none" fill-rule="evenodd">
        <g id="Doctors" transform="translate(-1001.000000, -1211.000000)">
            <g id="doctor_sitting" transform="translate(1001.000000, 1211.000000)">
                <path d="M157.847696,118.358454 C157.847696,119.778108 124.397867,120.928506 83.1319848,120.928506 C41.8691006,120.928506 8.41627324,119.778108 8.41627324,118.358454 C8.41627324,116.939101 41.8691006,115.788403 83.1319848,115.788403 C124.397867,115.788403 157.847696,116.939101 157.847696,118.358454" id="Fill-100" fill="#653870"></path>
                <polyline id="Fill-101" fill="#002B32" points="82.4694042 32.7284916 108.633844 32.7284916 103.983787 73.1598629 80.9913397 70.7650213 82.4694042 32.7284916"></polyline>
                <polygon id="Fill-102" fill="#9E005D" points="121.019006 60.0175857 142.809214 60.0175857 142.809214 56.0069149 121.019006 56.0069149"></polygon>
                <path d="M153.878209,60.0175857 L141.412099,60.0175857 C140.302801,60.0175857 139.40337,59.1196698 139.40337,58.0121005 C139.40337,56.9048307 140.302801,56.0069149 141.412099,56.0069149 L153.878209,56.0069149 C152.699954,57.0845337 152.699954,58.9402664 153.878209,60.0175857" id="Fill-103" fill="#E3E4FF"></path>
                <polygon id="Fill-104" fill="#2846A6" points="121.019006 56.0069149 149.86375 56.0069149 149.86375 52.4182466 121.019006 52.4182466"></polygon>
                <path d="M149.86375,56.0069149 L139.244471,56.0069149 C138.252099,56.0069149 137.448607,55.2033431 137.448607,54.2122812 C137.448607,53.2215189 138.252099,52.4182466 139.244471,52.4182466 L149.86375,52.4182466 L149.86375,56.0069149" id="Fill-105" fill="#FFDA88"></path>
                <polygon id="Fill-106" fill="#542360" points="119.645875 52.4182466 148.700486 52.4182466 148.700486 49.0407293 119.645875 49.0407293"></polygon>
                <polygon id="Fill-107" fill="#A7CDCD" points="122.215249 49.0407293 147.117488 49.0407293 147.117488 42.0017639 122.215249 42.0017639"></polygon>
                <path d="M121.019006,49.0407293 L126.370619,49.0407293 C127.716767,49.0407293 128.811074,47.9499322 128.811074,46.604556 L128.811074,44.4376377 C128.811074,43.0922614 127.716767,42.0017639 126.370619,42.0017639 L121.019006,42.0017639 C122.335173,44.1641896 122.335173,46.8783035 121.019006,49.0407293" id="Fill-108" fill="#F9B406"></path>
                <polygon id="Fill-109" fill="#FF0000" points="131.992061 44.9339174 143.933503 44.9339174 143.933503 43.6664124 131.992061 43.6664124"></polygon>
                <polygon id="Fill-110" fill="#FF0000" points="134.423522 46.8863901 143.378854 46.8863901 143.378854 45.7782218 134.423522 45.7782218"></polygon>
                <path d="M98.8540342,113.156353 C98.8540342,114.726058 97.8106945,115.998056 96.5245085,115.998056 C95.2383226,115.998056 94.1949829,114.726058 94.1949829,113.156353 C94.1949829,111.586947 95.2383226,110.31465 96.5245085,110.31465 C97.8106945,110.31465 98.8540342,111.586947 98.8540342,113.156353" id="Fill-111" fill="#381A3F"></path>
                <path d="M84.2322884,25.3711525 C84.2322884,25.3711525 82.9071271,26.7186253 81.2431803,28.3790807 C79.1774877,30.4414718 69.7544516,45.3319594 69.7544516,45.3319594 L73.4211309,47.2973109 L82.787203,40.7812812 L84.2322884,25.3711525" id="Fill-112" fill="#459FB2"></path>
                <polygon id="Fill-113" fill="#381A3F" points="83.9744516 110.898086 86.2709981 110.898086 86.2709981 78.5713184 83.9744516 78.5713184"></polygon>
                <polygon id="Fill-114" fill="#381A3F" points="73.4451157 110.898086 97.5198786 110.898086 97.5198786 109.631779 73.4451157 109.631779"></polygon>
                <path d="M96.5245085,115.364903 C95.5891006,115.364903 94.8275825,114.37414 94.8275825,113.156653 C94.8275825,111.938566 95.5891006,110.947804 96.5245085,110.947804 C97.4599165,110.947804 98.2214345,111.938566 98.2214345,113.156653 C98.2214345,114.37414 97.4599165,115.364903 96.5245085,115.364903" id="Fill-115" fill="#573A5E"></path>
                <path d="M75.7536546,112.500737 C75.7536546,114.070143 74.710315,115.342739 73.424129,115.342739 C72.134945,115.342739 71.0946034,114.070143 71.0946034,112.500737 C71.0946034,110.930732 72.134945,109.658435 73.424129,109.658435 C74.710315,109.658435 75.7536546,110.930732 75.7536546,112.500737" id="Fill-116" fill="#381A3F"></path>
                <path d="M73.4211309,114.709286 C72.4887211,114.709286 71.727203,113.718524 71.727203,112.500737 C71.727203,111.28265 72.4887211,110.291888 73.4211309,110.291888 C74.3565389,110.291888 75.1180569,111.28265 75.1180569,112.500737 C75.1180569,113.718524 74.3565389,114.709286 73.4211309,114.709286" id="Fill-117" fill="#573A5E"></path>
                <polyline id="Fill-118" fill="#002B32" points="102.658626 72.9798604 97.8406755 79.2086649 63.6053435 78.2556401 74.5334269 70.7650213 102.658626 72.9798604"></polyline>
                <polyline id="Fill-119" fill="#083A2B" points="64.7955901 82.2920684 96.8213207 83.2420981 97.8406755 79.2086649 63.6053435 78.2556401 64.7955901 82.2920684"></polyline>
                <polyline id="Fill-120" fill="#037399" points="61.5006755 69.4013753 61.7585123 68.6235609 74.5334269 65.2253778 71.5293283 74.2758184 61.5006755 69.4013753"></polyline>
                <path d="M83.7346034,55.8811228 C82.9431044,49.0733753 82.9640911,38.3007812 84.2322884,34.1840857 C85.5004858,30.0679892 88.8073928,23.7454396 88.8073928,23.7454396 L102.592668,23.7454396 C102.592668,23.7454396 101.168569,38.1525263 102.592668,39.5775708 C102.592668,39.5775708 98.4732751,56.0428555 98.4732751,59.2095213 C98.4732751,61.3437936 100.347089,62.6867738 101.567317,66.7783109 C101.567317,66.7783109 102.379803,71.4493901 101.006672,72.8214223 C99.6335408,74.193754 91.2058748,80.7376377 91.2058748,80.7376377 L75.8885693,80.4450213 L61.5006755,71.2094867 L61.7585123,68.6235609 C61.7585123,68.6235609 65.9288729,65.8552367 73.0073928,62.9000213 C80.0859127,59.944806 83.7346034,55.8811228 83.7346034,55.8811228" id="Fill-121" fill="#013C66"></path>
                <path d="M74.5334269,65.2253778 C74.5334269,65.2253778 80.2328197,62.3318604 82.6372979,58.5287466 C84.7719469,55.1470362 87.6111499,48.5489421 88.5855332,43.4357936 C88.5855332,43.4357936 88.5855332,35.5099941 88.5855332,35.0104198 L88.8073928,23.6741575 C88.8073928,23.6741575 85.9531992,23.0925189 83.7346034,26.3738951 C81.5160076,29.6552713 82.5083795,47.8915288 82.0466717,52.9441773 C81.6179431,57.6628778 76.1494042,60.0993505 70.8457609,62.7658431 C65.9558558,65.2238802 61.7585123,68.6235609 61.7585123,68.6235609 L66.5614725,66.6054966 L74.5334269,65.2253778" id="Fill-122" fill="#5CD4ED"></path>
                <polyline id="Fill-123" fill="#9DE5F4" points="83.4617761 23.7454396 88.8073928 23.7454396 88.5855332 43.4357936 85.5574497 33.5904669 86.9035977 33.0070312 84.921852 31.8197936 83.4617761 23.7454396"></polyline>
                <path d="M88.285723,80.0847169 C87.1914156,81.1692243 79.9240152,80.1182614 74.9351727,80.7406327 C68.9029905,81.4636377 58.5475446,77.2442119 61.7555142,68.6256575 C61.8184744,68.6136773 68.9719469,65.3877094 73.4451157,68.8856278 C74.0867097,69.3986797 75.558778,68.6181698 76.5721366,68.1509421 C77.3246603,67.8089075 89.4070133,78.9639693 88.285723,80.0847169" id="Fill-124" fill="#34173A"></path>
                <path d="M102.658626,66.3218654 C102.053009,62.7463753 99.0609032,60.4497713 98.4732751,59.2095213 C95.777981,53.5099421 102.592668,39.5775708 102.592668,39.5775708 L102.592668,23.7454396 L97.8406755,23.7454396 L91.6855712,43.4357936 L91.4337306,54.8795783 C91.4337306,54.8795783 90.0336167,59.612655 86.9545655,62.6888703 C84.4811309,65.1597862 82.787203,65.2253778 82.787203,65.2253778 C82.787203,65.2253778 88.5855332,65.5389594 91.2058748,69.4442045 C93.8232182,73.34915 91.2058748,80.7376377 91.2058748,80.7376377 C91.2058748,80.7376377 98.8420417,76.3948159 100.796805,74.4420436 C102.748569,72.4895708 102.658626,66.3218654 102.658626,66.3218654" id="Fill-125" fill="#5CD4ED"></path>
                <path d="M88.285723,80.0847169 L79.4563112,78.0998976 L71.5323264,69.658051 L73.0013966,68.5687515 C73.1542998,68.6636946 73.3012068,68.7715164 73.4451157,68.8856278 C73.8888349,69.2399421 74.6743378,68.99315 75.5437875,68.6130783 C75.879575,68.4675189 76.2273548,68.3090807 76.5721366,68.1509421 C77.3246603,67.8089075 89.4070133,78.9639693 88.285723,80.0847169" id="Fill-126" fill="#FD5E5A"></path>
                <path d="M75.5557799,80.6834273 C74.2396129,91.1768827 72.2698596,108.445739 72.9594231,111.445281 C73.100334,112.053276 73.657981,112.613051 73.7209412,113.117118 C73.948797,114.91265 73.7719089,115.998056 73.7719089,115.998056 L63.6083416,116.096893 C63.6083416,114.513709 68.360334,114.197432 69.0978672,111.138289 C69.7874307,108.282209 65.7070133,88.2893555 64.5647362,77.9600288 C64.4807894,77.2001847 64.411833,76.4978456 64.3608653,75.858103 C64.001093,71.1208332 64.3668615,68.7334793 65.2752865,67.5366575 C67.7277343,67.0424743 70.9926679,66.9412416 73.4451157,68.8856278 C73.8888349,69.2399421 74.6743378,68.99315 75.5437875,68.6130783 C76.4582087,69.1959149 77.0398406,69.658051 77.0398406,69.658051 C77.0398406,69.658051 76.350277,74.4393481 75.5557799,80.6834273" id="Fill-127" fill="#FD5E5A"></path>
                <path d="M96.8213207,83.2420981 L97.8406755,79.2086649 L102.658626,72.9798604 L108.612858,32.7284916 C108.612858,32.7284916 109.143522,33.0303926 109.830087,35.6160189 C110.516653,38.2019446 105.233996,74.2758184 105.233996,74.2758184 L96.8213207,83.2420981" id="Fill-128" fill="#015941"></path>
                <polygon id="Fill-129" fill="#5CD4ED" points="7.18405313 120.506204 34.2329336 120.506204 34.2329336 54.8726896 7.18405313 54.8726896"></polygon>
                <polygon id="Fill-130" fill="#013C66" points="34.2329336 120.506204 47.3346414 120.506204 47.3346414 54.8726896 34.2329336 54.8726896"></polygon>
                <polygon id="Fill-131" fill="#9FF4FF" points="114.740979 120.54544 148.64652 120.54544 148.64652 58.8480189 114.740979 58.8480189"></polygon>
                <polygon id="Fill-132" fill="#013C66" points="148.64652 120.54544 155.194376 120.54544 155.194376 58.8480189 148.64652 58.8480189"></polygon>
                <polygon id="Fill-133" fill="#013C66" points="5.17952182 59.6521896 121.606634 59.6521896 121.606634 57.1189768 5.17952182 57.1189768"></polygon>
                <polygon id="Fill-134" fill="#013C66" points="112.41745 120.54544 114.740979 120.54544 114.740979 57.1189768 112.41745 57.1189768"></polygon>
                <path d="M103.036387,27.3200312 C100.622915,24.7014594 97.4689108,24.3375609 97.4689108,24.3375609 L97.0671651,31.5391575 C97.0671651,31.5391575 98.3413586,35.5411426 98.3413586,39.0321723 C98.3413586,42.523202 98.1404858,47.7603456 96.128759,48.3425832 C94.7196509,48.750509 88.081852,48.9733406 84.2322884,49.0703802 C84.2322884,50.1962193 84.2322884,51.3040882 84.2322884,52.4023728 C90.0156281,52.6961872 100.167203,54.8732887 101.963066,52.9253085 C104.109708,50.597556 105.44986,29.9389025 103.036387,27.3200312" id="Fill-135" fill="#9DE5F4"></path>
                <path d="M80.7245085,71.6590436 C79.8370702,70.1138976 78.3769943,68.4100139 76.5721366,68.1509421 C73.190277,67.6654446 70.9387021,69.8718976 68.507241,79.9301723 C65.9528577,90.5059916 62.6309602,105.83136 60.9640152,109.022885 C58.4276205,113.880556 57.477222,117.572554 56.7366907,118.313529 C55.9991575,119.054204 55.048759,121.055497 58.1098216,120.422343 C61.1738824,119.78919 62.3581328,116.9394 62.97874,115.356217 C63.6083416,113.773034 65.083408,112.404895 65.611074,111.872974 C66.1417381,111.347343 64.6606755,109.339761 65.4012068,107.756578 C66.048797,106.38215 76.1583985,87.9982367 78.8207135,80.6139421 C79.2194611,79.4866055 79.4563112,78.6192392 79.4563112,78.0998976 C79.4563112,78.0998976 82.4094421,74.616655 80.7245085,71.6590436" id="Fill-136" fill="#FC7575"></path>
                <path d="M59.4050019,117.356011 C58.4965769,117.356011 58.1937685,116.298759 58.1038254,115.396051 C57.4982087,116.918435 57.0904668,117.957118 56.7366907,118.313529 C55.9991575,119.054204 55.048759,121.055497 58.1098216,120.422343 C61.1738824,119.78919 62.3581328,116.939101 62.97874,115.356217 C63.6083416,113.773034 65.083408,112.404895 65.611074,111.872974 C65.9648501,111.521655 65.4221935,110.508729 65.2423074,109.402657 C65.1613586,109.556304 60.9730095,117.356011 59.4050019,117.356011" id="Fill-137" fill="#1C3135"></path>
                <polyline id="Fill-138" fill="#9DE5F4" points="101.960068 23.7454396 97.8406755 23.7454396 91.6855712 43.4357936 97.8406755 35.5402441 97.1271271 34.5905139 98.6321746 34.1945684 101.960068 23.7454396"></polyline>
                <path d="M97.2860266,45.3556203 C96.9352486,45.3556203 96.6504288,45.0725882 96.6504288,44.7227664 C96.6504288,44.6206352 96.6594231,44.5745114 96.8363112,43.7251154 C99.5915674,30.5657664 99.2737685,25.732655 98.5242429,23.9955263 C97.8376774,22.4054545 96.3416243,21.4239768 94.5217761,21.3694669 C90.9600304,21.2583505 87.2363871,24.3869793 84.541093,29.7277515 C84.3821935,30.0401352 84.0014345,30.1662268 83.6896319,30.0080882 C83.3778292,29.8508481 83.2519089,29.4698778 83.4108083,29.1577936 C86.3309602,23.3671649 90.510315,19.9650882 94.5607514,20.103759 C96.8872789,20.1729446 98.8030664,21.4404495 99.6905047,23.494754 C100.886748,26.2657738 100.344091,33.1588802 98.0775256,43.9841872 C97.9905806,44.4046921 97.9306186,44.6811352 97.9156281,44.7775758 C97.8886452,45.1016401 97.6158178,45.3556203 97.2860266,45.3556203" id="Fill-139" fill="#2A417F"></path>
                <path d="M99.6785123,44.7230659 C99.6785123,46.0438827 98.6081898,47.1146129 97.2860266,47.1146129 C95.9638634,47.1146129 94.8905427,46.0438827 94.8905427,44.7230659 C94.8905427,43.4019495 95.9638634,42.3312193 97.2860266,42.3312193 C98.6081898,42.3312193 99.6785123,43.4019495 99.6785123,44.7230659" id="Fill-140" fill="#0071BC"></path>
                <path d="M83.8215484,30.0706847 C82.7482277,30.0706847 81.8098216,30.2899223 81.1322505,30.7125238 C79.9450019,31.4526005 80.0139583,32.8444 80.0859127,34.3179644 L80.1068994,34.7624297 C80.2298216,37.9326896 80.8174497,41.0786896 81.7588539,43.6223852 C81.761852,43.6355634 81.7678482,43.6490411 81.7708463,43.6625189 C82.2355522,43.0844743 82.7032562,42.4132837 83.1859507,41.6285807 C84.8229146,38.980957 86.0671271,36.1161921 86.8916053,33.1139545 C87.086482,32.3945436 87.2303909,31.6562639 86.9515674,31.1285362 C86.618778,30.4980783 85.7223454,30.2671599 85.215666,30.1862936 C84.7329715,30.1090213 84.2652676,30.0706847 83.8215484,30.0706847 Z M86.85263,49.2944099 C85.9382087,49.2944099 84.9848121,49.0113778 84.1963112,48.5830857 C83.1020038,47.9867713 82.1665958,47.0678901 81.441055,45.879155 C81.1712258,46.1277441 80.8864061,46.3658505 80.5835977,46.5895807 C79.6002201,47.3206723 78.4999165,47.8286327 77.402611,48.0574545 C77.37263,48.0640436 74.3115674,48.3326995 73.9667856,47.6405436 L74.5334269,47.3587094 L74.6323643,46.7339421 C74.8812068,46.7638926 76.8389677,46.8687193 77.1507704,46.816306 C78.0591954,46.6255213 78.9886072,46.1951327 79.8280759,45.5730609 C80.1728577,45.3175832 80.502649,45.0330535 80.8324402,44.7116847 C80.7365009,44.5008332 80.649556,44.2833926 80.5686072,44.0602614 C79.5852296,41.3958654 78.9706186,38.1120931 78.8387021,34.8133456 L78.8207135,34.3793629 C78.7397647,32.7719198 78.6438254,30.7718258 80.4606755,29.6381995 C82.1246224,28.6004149 84.2802581,28.7519644 85.4165389,28.9355609 C86.7117192,29.1431179 87.6291385,29.6975015 88.0728577,30.5376129 C88.5585503,31.4531995 88.3786641,32.4775065 88.111833,33.447603 C87.2603719,36.5666476 85.9651917,39.5431278 84.2652676,42.2937812 C83.7645844,43.1042416 83.1409791,44.0440882 82.3584744,44.9366129 C82.8861404,45.8854446 83.6686452,46.8531451 84.804926,47.4710238 C85.7643188,47.9939594 87.4942239,48.421353 88.3246983,47.4524545 C88.549556,47.1852961 88.9513017,47.1535486 89.2181328,47.3814718 C89.4849639,47.6084966 89.514945,48.0080362 89.2870892,48.2736971 C88.666482,49.0023926 87.7820417,49.2944099 86.85263,49.2944099 Z" id="Fill-141" fill="#0071BC"></path>
                <path d="M97.6967666,17.6184669 C97.6967666,17.6184669 101.76819,19.6032862 103.201283,22.1206253 C104.634376,24.6379644 105.461852,27.123556 105.461852,27.123556 L104.028759,27.7638976 C104.028759,27.7638976 103.839879,26.4832144 103.351188,25.579608 L104.24762,30.2351129 L102.370808,30.8143555 C102.370808,30.8143555 101.225533,27.6024644 100.823787,25.6925213 L101.89411,30.8143555 L99.9963112,31.0593505 C99.9963112,31.0593505 98.7970702,29.2506401 98.7970702,27.518004 L98.9769564,31.0593505 L95.8139583,29.1329347 C95.8139583,29.1329347 95.2053435,24.6026228 95.3762353,21.2487664 C95.4302011,20.1807317 95.6400683,18.9761228 95.8979051,18.3920882 C96.4555522,17.1407565 97.6967666,17.6184669 97.6967666,17.6184669" id="Fill-142" fill="#002B32"></path>
                <path d="M98.4163112,17.8568728 L98.3683416,17.9191698 C97.8466717,18.6161179 96.9922125,18.9821129 96.128759,18.8799817 L95.6400683,18.8218778 L95.016463,17.0344322 L97.7927059,16.0691278 L98.4163112,17.8568728" id="Fill-143" fill="#3BD7E6"></path>
                <path d="M98.4762732,2.51563024 C97.648797,1.68630103 94.2789298,1.48922678 94.2789298,1.48922678 L94.0270892,1.48922678 C92.9717571,1.08729113 87.3922884,9.37309559 88.0968425,13.7916921 C88.7983985,18.2102887 89.3020797,17.7589347 92.4680759,18.3109223 C95.6340721,18.8632094 97.9965769,16.5034099 98.7970702,13.8920263 C99.5975636,11.2812416 99.3067476,3.34495945 98.4762732,2.51563024" id="Fill-144" fill="#002B32"></path>
                <path d="M89.4010171,16.6540609 C89.3080759,16.7469075 89.4100114,17.9009 89.4969564,19.3543976 C89.6198786,21.4410486 89.2361214,25.1030956 89.1851537,25.2103184 C89.1851537,25.2103184 89.3500493,28.5120609 90.9690247,28.7052416 C92.3751347,28.8735634 94.9265199,27.2074174 95.2083416,25.9186476 C95.5861025,24.1860114 95.2083416,15.5243283 95.2083416,15.5243283 L89.4010171,16.6540609" id="Fill-145" fill="#FC7575"></path>
                <path d="M89.4969564,19.3543976 C91.6435977,21.2948901 93.6673169,20.4122491 95.2952865,17.9790708 C95.2593093,16.7525981 95.2113397,15.5953109 95.2083416,15.5243283 L89.4010171,16.6540609 C89.3080759,16.746608 89.4100114,17.9009 89.4969564,19.3543976" id="Fill-146" fill="#FD5E5A"></path>
                <path d="M90.0815863,1.99539014 C90.0815863,1.99539014 87.3593093,2.5129347 87.0355142,4.8421847 C86.7117192,7.17113519 86.2590057,9.11192727 86.7117192,11.8293357 C87.1644326,14.5467441 88.783408,18.1698555 91.4397268,18.7517936 C94.0960455,19.3340312 96.8812827,14.934603 96.8812827,12.5409594 C96.8812827,10.1470164 97.8526679,6.13604608 96.0388159,3.67740994 C94.2249639,1.21907331 90.0815863,1.99539014 90.0815863,1.99539014" id="Fill-147" fill="#FC7575"></path>
                <path d="M94.227962,2.33053618 C91.505685,1.25321687 87.43726,1.95315994 87.0355142,4.8421847 C86.7417002,6.95279608 86.3429526,8.74503371 86.6067856,11.0853654 C87.0415104,10.786759 87.6561214,10.486655 88.519575,10.2018258 C90.9150588,9.41352876 93.2385882,5.44209311 94.3029146,3.14668717 C94.2999165,3.08349163 94.3538824,2.78937777 94.227962,2.33053618" id="Fill-148" fill="#FD5E5A"></path>
                <path d="M96.1677343,11.182405 C96.1677343,11.182405 97.2050778,9.98528371 97.7207514,9.46773915 C98.2394231,8.9501946 99.5346034,3.83944212 98.2394231,2.09242975 C96.9442429,0.345716875 94.4648121,0.248677271 92.4830664,0.022251528 C90.5013207,-0.204174215 87.3563112,1.30383321 87.1794231,4.25365747 C87.1794231,4.25365747 92.2821935,2.31885549 93.7062922,2.99813272 C95.1303909,3.67740994 95.7150209,4.48637282 96.0058368,6.07105351 C96.2966528,7.65633321 96.1677343,11.182405 96.1677343,11.182405" id="Fill-149" fill="#002B32"></path>
                <path d="M96.1677343,11.182405 C96.1677343,11.182405 96.860296,8.17837034 98.0145655,8.90407083 C99.1688349,9.62947183 97.9306186,12.9548753 96.8542998,12.9548753 C95.777981,12.9548753 96.1677343,11.182405 96.1677343,11.182405" id="Fill-150" fill="#FC7575"></path>
                <path d="M97.2890247,9.53602628 C97.2890247,9.53602628 95.5861025,12.2666129 96.7523643,11.9653109 C97.9216243,11.664009 98.3833321,9.02806588 97.2890247,9.53602628" id="Fill-151" fill="#FD5E5A"></path>
                <path d="M98.1494801,17.7778035 C99.6845085,18.2725857 101.165571,18.9479693 102.532706,19.832108 C103.213275,20.2813654 103.851871,20.7788431 104.478474,21.2972862 C105.105078,21.828608 105.704698,22.344655 106.253351,23.0350139 L105.74967,23.3668654 C105.311947,22.7846278 104.712326,22.2128728 104.127696,21.6908357 C103.534072,21.166103 102.913465,20.652452 102.274869,20.2031946 C101.627279,19.7521401 100.940713,19.3520015 100.233161,18.9964892 C99.5286072,18.6409768 98.791074,18.320207 98.0565389,18.0638307 L98.1494801,17.7778035" id="Fill-152" fill="#3BD7E6"></path>
                <path d="M97.7837116,17.9230634 C98.7281139,18.3495585 99.6305427,18.8745906 100.490998,19.4556302 C101.354452,20.0378679 102.169935,20.6910882 102.934452,21.4024124 C103.704964,22.1083456 104.40652,22.8900535 105.036121,23.7307639 C105.68671,24.5579966 106.199385,25.4843654 106.679082,26.4254099 L106.127431,26.6695065 C105.710694,25.7470312 105.260979,24.8266525 104.667355,23.9931302 C104.097715,23.1470288 103.447127,22.3482491 102.721586,21.618056 C102.00504,20.8821723 101.231529,20.1972045 100.404053,19.5784273 C99.5765769,18.9605486 98.7071271,18.3947837 97.7837116,17.9230634" id="Fill-153" fill="#3BD7E6"></path>
                <path d="M90.0546034,12.9596674 C90.1265579,12.2171946 90.1745275,11.4723258 90.1685313,10.7229644 C90.0036357,11.6717961 89.9646603,12.363353 89.9076964,13.0522144 C90.3034459,13.1606352 90.7801442,13.3810708 91.3767666,13.1564421 C90.921055,13.2435981 90.4683416,13.1139124 90.0546034,12.9596674" id="Fill-154" fill="#172866"></path>
                <path d="M91.5266717,10.6525807 C91.6615863,10.2242887 92.0273548,9.81486539 92.528038,9.68188519 C93.4154763,9.44946935 93.9581328,10.7277565 94.5667476,10.7154768 C94.1320228,10.939207 93.4304668,10.1922416 92.9507704,10.0017565 C92.6899355,9.89663024 92.4590816,9.96970945 92.2012448,10.091009 C91.9524023,10.2197961 91.7275446,10.4198654 91.5266717,10.6525807" id="Fill-155" fill="#172866"></path>
                <path d="M93.1366528,10.2683159 C93.1366528,10.5381698 92.9417761,10.757108 92.7019279,10.757108 C92.4650778,10.757108 92.2702011,10.5381698 92.2702011,10.2683159 C92.2702011,9.99846192 92.4650778,9.77982331 92.7019279,9.77982331 C92.9417761,9.77982331 93.1366528,9.99846192 93.1366528,10.2683159" id="Fill-156" fill="#172866"></path>
                <path d="M89.5509222,10.9308208 C89.398019,10.5091179 89.0142619,10.1164669 88.5075825,10.00565 C87.6111499,9.81396687 87.1254573,11.1150164 86.5168425,11.1302911 C86.9635598,11.3339545 87.6291385,10.5564396 88.0998406,10.3446896 C88.3576774,10.2275832 88.5915294,10.2901797 88.8523643,10.3997986 C89.107203,10.5172045 89.341055,10.7070906 89.5509222,10.9308208" id="Fill-157" fill="#172866"></path>
                <path d="M87.9289488,10.6193357 C87.9409412,10.8885906 88.141814,11.0985436 88.3816622,11.0874619 C88.6215104,11.0769793 88.8043947,10.8499545 88.7924023,10.5804 C88.7804099,10.3105461 88.5765389,10.1008926 88.3366907,10.1113753 C88.0998406,10.1221575 87.9169564,10.3494817 87.9289488,10.6193357" id="Fill-158" fill="#172866"></path>
                <path d="M91.211871,8.58210301 C91.1159317,8.51920697 91.8894421,7.74079361 92.821852,7.65303866 C93.7512638,7.56528371 94.7556281,8.58210301 94.7556281,8.58210301 C94.7556281,8.58210301 93.3854953,7.76595202 92.8068615,8.02981588 C92.2312258,8.29338024 91.7485313,8.92982826 91.211871,8.58210301" id="Fill-159" fill="#172866"></path>
                <path d="M89.9286831,15.6222664 C89.8297457,15.6081896 89.8537306,15.4551426 89.9496698,15.4734124 C89.9646603,15.4749099 91.4936926,15.6809693 92.764888,14.6788258 C92.8428387,14.6180263 92.9357799,14.7357317 92.8578292,14.7974297 C91.9973738,15.476707 90.7681518,15.749556 89.9286831,15.6222664" id="Fill-160" fill="#172866"></path>
                <path d="M91.0709602,16.1152515 C91.0319848,16.1152515 90.9990057,16.085301 90.9960076,16.0457664 C90.9810171,15.8582763 92.1083036,15.992754 92.5250398,15.3077862 C92.5790057,15.2227268 92.704926,15.3011971 92.6539583,15.3862565 C92.267203,16.0185114 91.124926,16.1116575 91.0739583,16.114952 C91.0739583,16.1152515 91.0709602,16.1152515 91.0709602,16.1152515" id="Fill-161" fill="#172866"></path>
                <path d="M91.358778,9.9304743 C91.0979431,9.9304743 90.8850778,10.1434223 90.8850778,10.4048901 L90.8850778,11.183004 C90.8850778,11.4447713 91.0979431,11.6577193 91.358778,11.6577193 L94.6716812,11.6577193 C94.9325161,11.6577193 95.1453814,11.4447713 95.1453814,11.183004 L95.1453814,10.4048901 C95.1453814,10.1434223 94.9325161,9.9304743 94.6716812,9.9304743 L91.358778,9.9304743 Z M94.6716812,11.9590213 L91.358778,11.9590213 C90.9330474,11.9590213 90.5822694,11.6109966 90.5822694,11.183004 L90.5822694,10.4048901 C90.5822694,9.97719707 90.9330474,9.62917232 91.358778,9.62917232 L94.6716812,9.62917232 C95.0974118,9.62917232 95.4481898,9.97719707 95.4481898,10.4048901 L95.4481898,11.183004 C95.4481898,11.6109966 95.0974118,11.9590213 94.6716812,11.9590213 Z" id="Fill-162" fill="#000000"></path>
                <path d="M86.2320228,9.9304743 C86.0401442,9.9304743 85.8842429,10.0868159 85.8842429,10.2793976 L85.8842429,11.3087961 C85.8842429,11.5010783 86.0401442,11.6577193 86.2320228,11.6577193 L89.2031423,11.6577193 C89.3950209,11.6577193 89.5539203,11.5010783 89.5539203,11.3087961 L89.5539203,10.2793976 C89.5539203,10.0868159 89.3950209,9.9304743 89.2031423,9.9304743 L86.2320228,9.9304743 Z M89.2031423,11.9590213 L86.2320228,11.9590213 C85.8752486,11.9590213 85.5814345,11.667603 85.5814345,11.3087961 L85.5814345,10.2793976 C85.5814345,9.92089014 85.8752486,9.62917232 86.2320228,9.62917232 L89.2031423,9.62917232 C89.5629146,9.62917232 89.8537306,9.92089014 89.8537306,10.2793976 L89.8537306,11.3087961 C89.8537306,11.667603 89.5629146,11.9590213 89.2031423,11.9590213 Z" id="Fill-163" fill="#000000"></path>
                <path d="M89.8297457,0.556268855 C87.3353245,1.10645945 86.5828008,4.9389248 84.5440911,6.97705598 C82.5023833,9.01488767 83.021055,11.9584223 83.9924402,13.8995139 C84.9638254,15.840306 86.5228387,14.5787911 86.5228387,14.5787911 C86.5228387,14.5787911 85.7073548,15.0316426 85.1916812,13.4146154 C84.6730095,11.7969892 85.5784364,10.5351748 88.3306945,9.62947183 C91.0829526,8.72406836 93.7062922,2.99813272 93.7062922,2.99813272 C93.7752486,1.87888272 92.3211689,0.00637776561 89.8297457,0.556268855" id="Fill-164" fill="#034147"></path>
                <path d="M88.7114535,9.13439014 C87.4732372,9.64714262 85.9232182,10.1386302 85.215666,11.3069991 C84.2412827,12.8168035 85.5754383,15.1295807 86.5228387,14.5787911 C86.1840531,14.7000906 85.8632562,14.4967268 85.6893662,14.238853 C85.2756281,13.6404421 84.9788159,12.3759322 85.5994231,11.5615783 C86.3699355,10.5249916 87.964926,10.095801 88.4895939,9.88465004 L88.9992713,9.66391489 C91.1189298,8.41048668 92.8758178,5.2659842 93.7062922,2.99813272 C92.5640152,4.89819212 90.6752106,8.00825153 88.7114535,9.13439014" id="Fill-165" fill="#023135"></path>
                <polygon id="Fill-166" fill="#000000" points="89.7667856 10.640301 90.6422315 10.640301 90.6422315 10.4033926 89.7667856 10.4033926"></polygon>
                <polyline id="Fill-167" fill="#534741" points="57.1204478 31.6652491 66.6873928 57.7482367 79.1175256 57.7482367 76.9708843 32.7374768 57.1204478 31.6652491"></polyline>
                <path d="M66.7143757,57.7119966 L79.0785503,57.7119966 L76.9379051,32.7719198 L57.1744137,31.7044842 L66.7143757,57.7119966 Z M79.1565009,57.7844768 L66.663408,57.7844768 L66.6544137,57.7608159 L57.066482,31.6260139 L57.1234459,31.629009 L77.0038634,32.7030337 L77.0068615,32.7344817 L79.1565009,57.7844768 Z" id="Fill-168" fill="#0071BC"></path>
                <path d="M62.4420797,49.5750461 C62.4420797,49.5750461 65.8389298,46.1807565 66.5974497,46.1807565 C67.3589677,46.1807565 65.0804099,49.1284842 65.0804099,49.1284842 C65.0804099,49.1284842 66.6214345,47.7217094 67.1341101,48.2350609 C67.6497837,48.7487119 65.6140721,50.7362268 65.6140721,50.7362268 C65.6140721,50.7362268 66.9122505,49.7089248 67.6707704,49.9323555 C68.4322884,50.1557862 66.3306186,51.8974075 66.3306186,51.8974075 C66.3306186,51.8974075 67.4728956,51.533509 67.8386641,51.8974075 C68.2014345,52.261306 67.1371082,54.6456649 65.6590436,54.9463679 C64.1839772,55.2470708 63.6473169,53.9966377 63.3804858,53.1924669 C63.1106565,52.3888951 62.4420797,52.5674 62.4420797,51.5403976 C62.4420797,50.5127961 62.4420797,49.5750461 62.4420797,49.5750461" id="Fill-169" fill="#FC7575"></path>
                <path d="M81.4530474,49.1305807 C81.2281898,49.1305807 78.3110361,45.1417738 77.1957419,45.1417738 C76.0774497,45.1417738 79.0905427,48.1868406 78.3650019,48.5800906 C77.6424592,48.9727416 73.2592334,47.7121253 72.1889108,47.5183456 C71.1155901,47.3239669 72.5966528,48.6244174 75.5407894,49.3609 C78.484926,50.0970832 76.0324782,50.0401773 73.7509222,49.3609 C71.4723643,48.6819223 71.0256471,48.1970238 71.0256471,49.0215609 C71.0256471,49.8457986 76.7130474,50.9249149 76.7130474,51.2522738 C76.7130474,51.5793332 71.961055,49.9521228 71.7361973,50.1974174 C71.5083416,50.4427119 73.6789677,51.9794718 76.6470892,52.2523208 C76.6470892,52.2523208 77.0158558,52.3978802 76.5301632,52.5431401 C76.0444706,52.6889991 73.1932751,51.9794718 73.1932751,51.9794718 C73.1932751,51.9794718 72.2368805,52.3430708 73.9128197,52.9798184 C73.9128197,52.9798184 77.1507704,53.2889075 81.441055,52.4889297 C82.142611,52.3583456 83.1050019,52.3451674 84.2322884,52.4023728 C84.2322884,51.3040882 84.2322884,50.1962193 84.2322884,49.0703802 C82.5893283,49.1117119 81.4530474,49.1305807 81.4530474,49.1305807" id="Fill-170" fill="#FC7575"></path>
                <path d="M70.9207135,114.506222 C70.1142239,114.832083 67.4429146,114.475972 65.9078861,114.256435 C64.6936546,114.872516 63.6083416,115.340044 63.6083416,116.096893 L73.7719089,115.998056 C73.7719089,115.998056 74.065723,114.560133 73.8378672,112.764601 C73.0643567,112.774484 71.9130854,114.104885 70.9207135,114.506222" id="Fill-171" fill="#1C3135"></path>
                <polygon id="Fill-172" fill="#F0E6A6" points="0 57.1189768 123.852213 57.1189768 123.852213 52.8540263 0 52.8540263"></polygon>
                <polyline id="Fill-173" fill="#3A1942" points="55.0547552 51.0617887 28.8843188 51.0617887 28.8843188 52.8561228 54.9917951 52.8561228 55.0547552 51.0617887"></polyline>
                <polyline id="Fill-174" fill="#1B1464" points="36.2446603 12.0955956 36.2446603 43.0946575 3.68256926 41.2251476 2.65871727 13.3091896 36.2446603 12.0955956"></polyline>
                <path d="M13.7289108,35.2644 C13.7289108,33.4467045 15.5007894,31.9734396 17.6894042,31.9734396 C19.8750209,31.9734396 21.6468994,33.4467045 21.6468994,35.2644 C21.6468994,37.0817961 19.8750209,38.5550609 17.6894042,38.5550609 C17.6054573,38.5550609 17.5245085,38.5520659 17.4435598,38.5481723 C16.5051537,41.4926055 15.4168425,46.6446896 16.0704288,49.0161698 C16.4421935,50.4103654 17.3206376,51.7075213 18.5168805,52.5101946 L18.3399924,52.8013134 C16.9398786,52.0543481 15.8545655,50.7631822 15.2699355,49.2249248 C14.3315294,46.7608976 14.8022315,41.3913728 15.5247742,38.0201451 C14.4454573,37.4325164 13.7289108,36.4180931 13.7289108,35.2644" id="Fill-175" fill="#12113F"></path>
                <path d="M16.0704288,51.2522738 L25.790277,51.2522738 C26.5577913,51.2522738 27.1783985,51.8722491 27.1783985,52.6368852 L27.1783985,52.9091352 L14.6853055,52.9091352 L14.6853055,52.6368852 C14.6853055,51.8722491 15.3059127,51.2522738 16.0704288,51.2522738" id="Fill-176" fill="#12113F"></path>
            </g>
        </g>
    </g>
</svg>