<?xml version="1.0" encoding="UTF-8"?>
<svg width="70px" height="120px" viewBox="0 0 70 120" version="1.1" xmlns="http://www.w3.org/2000/svg" xmlns:xlink="http://www.w3.org/1999/xlink">
    <!-- Generator: Sketch 52.5 (67469) - http://www.bohemiancoding.com/sketch -->
    <title>doctor_lady_single</title>
    <desc>Created with Sketch.</desc>
    <g id="Page-1" stroke="none" stroke-width="1" fill="none" fill-rule="evenodd">
        <g id="doctor_lady_single" transform="translate(35.000000, 60.000000) scale(-1, 1) translate(-35.000000, -60.000000) ">
            <path d="M69.9865769,117.038346 C69.9865769,118.405263 54.3522299,119.512782 35.0674531,119.512782 C15.7804118,119.512782 0.146064812,118.405263 0.146064812,117.038346 C0.146064812,115.671429 15.7804118,114.56391 35.0674531,114.56391 C54.3522299,114.56391 69.9865769,115.671429 69.9865769,117.038346" id="Fill-392" fill="#323445"></path>
            <path d="M16.3601327,38.0120301 C16.1676472,37.7142857 15.2188072,36.6676692 14.5507695,36.0135338 C13.8804673,35.3593985 13.8555574,34.5406015 13.5679615,34.4593985 C13.3347144,34.3917293 13.1988423,34.9691729 13.5860778,35.3977444 C13.964255,35.8195489 14.5870021,36.5323308 14.0344556,36.7511278 C13.4887028,36.9676692 11.4075955,34.3736842 11.3849501,34.3466165 C11.1856711,34.0917293 10.757674,33.6789474 10.7101188,33.9992481 C10.7214415,34.175188 11.3441885,35.0368421 11.7835082,35.5082707 C12.5443918,36.3293233 12.7753744,36.5977444 12.752729,36.7556391 C12.6372377,36.8300752 12.1345111,36.3112782 10.986392,35.1969925 C9.72731077,33.9744361 8.37085453,33.6541353 11.1064123,35.9661654 C11.8605024,36.6045113 12.3881389,37.1909774 12.3043512,37.2451128 C12.0439297,37.4120301 11.5774355,36.9654135 11.1018833,36.5887218 C10.6376537,36.2233083 9.56879334,35.4609023 9.71372356,36.056391 C9.77486599,36.1781955 10.4406392,36.6293233 10.9275141,36.9586466 C11.9805227,37.6736842 12.2681186,37.8924812 12.2703831,38.0774436 C11.8242698,38.3661654 10.7735258,37.4413534 10.1575723,37.093985 C10.0647264,37.0398496 9.96735144,37.1548872 10.037552,37.2360902 C10.3251479,37.5744361 10.986392,38.1406015 11.9239093,38.6345865 C12.8999238,39.1466165 14.6073829,39.7330827 15.6400106,40.0443609 C15.6535979,40.062406 15.7645601,40.1300752 15.9502519,40.2293233 C16.3012548,39.5548872 16.6839611,38.9007519 17.1346035,38.2984962 C16.6567867,38.1270677 16.3623972,38.0165414 16.3601327,38.0120301" id="Fill-393" fill="#FD5E5A"></path>
            <path d="M34.2159881,22.8270677 C34.2159881,22.8270677 32.0737383,21.3969925 30.5338548,22.4300752 C28.9962358,23.4631579 26.5754483,37.6759398 25.0355648,38.0729323 C23.4979458,38.4699248 17.6780918,37.1097744 17.6780918,37.1097744 L14.6979642,40.418797 C14.6979642,40.418797 24.4739602,43.9105263 26.523364,43.256391 C28.5705033,42.6022556 32.2367848,33.1601504 32.2367848,33.1601504 L34.2159881,22.8270677" id="Fill-394" fill="#459FB2"></path>
            <path d="M44.0689782,18.4578947 C44.0689782,18.4578947 48.0205911,22.7887218 49.3770473,25.4932331 C50.7335036,28.1954887 57.8350841,36.6203008 57.8350841,36.6203008 L54.5628316,40.2766917 L44.0689782,30.381203 C44.0689782,30.381203 41.6346035,29.4676692 44.0689782,18.4578947" id="Fill-395" fill="#9DE5F4"></path>
            <path d="M34.8432642,75.0857143 L34.6394561,77.2308271 C34.6394561,77.2308271 36.0593193,79.7932331 35.749078,84.3067669 C35.4365723,88.8203008 32.8368865,111.38797 32.3296308,113.785714 L32.4383284,116.293985 C32.4383284,116.293985 27.5469337,116.485714 26.1134832,116.589474 C26.1134832,116.589474 29.6642735,115.276692 30.6176426,114.099248 C31.4985466,113.01203 27.7530063,78.4894737 27.7530063,78.4894737 L28.0768348,74.2015038 L34.8432642,75.0857143" id="Fill-396" fill="#FD5E5A"></path>
            <path d="M32.6376075,76.7030075 L33.7291132,81.737594 C33.7291132,81.737594 34.0959678,86.6390977 34.2137236,88.5293233 C34.3314794,90.4172932 38.2400661,113.679699 38.2400661,113.679699 L36.4307029,118.026316 C36.4307029,118.026316 36.3310634,119.018797 37.1304441,119.64812 C37.9298249,120.275188 39.3542171,119.393233 39.6554002,119.075188 C39.9565833,118.759398 39.8161822,116.508271 39.6938973,114.545865 C39.5716125,112.583459 41.5123186,85.4819549 40.3189089,83.0233083 C39.1254991,80.5646617 38.824316,77.4518797 38.824316,77.4518797 L32.6376075,76.7030075" id="Fill-397" fill="#FC7575"></path>
            <path d="M33.6543835,18.4578947 L44.0689782,18.4578947 C44.0689782,18.4578947 42.9933243,29.3075188 44.0689782,30.381203 C44.0689782,30.381203 39.3406299,42.4827068 39.3406299,44.8691729 C39.3406299,47.2533835 44.0689782,48.624812 44.0689782,57.0902256 C44.0689782,65.5556391 41.1975483,80.9368421 41.1975483,80.9368421 L27.1914017,80.9368421 C27.1914017,80.9368421 26.6252681,73.5609023 27.5582563,65.4721805 C28.5161545,57.1714286 30.8825931,46.9421053 30.5791455,44.3458647 C29.9813084,39.2165414 27.9885179,31.7323308 28.946416,28.6330827 C29.9043142,25.5315789 33.6543835,18.4578947 33.6543835,18.4578947" id="Fill-398" fill="#013C66"></path>
            <path d="M30.7829536,77.7180451 C30.7829536,77.7180451 33.4890725,36.3857143 33.4890725,33.2864662 L33.6543835,18.4578947 C33.6543835,18.4578947 29.5850148,23.1067669 27.9092592,27.3992481 C26.2335036,31.6917293 28.5252126,32.0097744 28.5252126,38.4496241 C28.5252126,44.887218 25.0355648,77.1609023 25.0355648,77.1609023 L30.7829536,77.7180451" id="Fill-399" fill="#5CD4ED"></path>
            <path d="M40.4774263,18.4578947 L35.8306013,33.2864662 L34.8523223,77.7180451 L47.3027336,77.7180451 C47.3027336,77.7180451 44.7868357,49.1007519 42.7532836,44.8082707 C40.717467,40.5157895 44.0689782,30.381203 44.0689782,30.381203 L44.0689782,18.4578947 L40.4774263,18.4578947" id="Fill-400" fill="#5CD4ED"></path>
            <polyline id="Fill-401" fill="#9DE5F4" points="29.8250555 19.5902256 33.8876306 18.9112782 33.4890725 33.2864662 31.2018925 25.8721805 32.2186686 25.4323308 30.7218112 24.5390977 29.8250555 19.5902256"></polyline>
            <polyline id="Fill-402" fill="#9DE5F4" points="43.5911614 18.4578947 38.7156184 18.4218045 35.8306013 33.2864662 40.4774263 27.3406015 39.9384671 26.6255639 41.077528 26.3278195 43.5911614 18.4578947"></polyline>
            <path d="M33.0995725,22.9714286 C33.5796539,23.8759398 31.6593285,28.4165414 29.9790438,30.5007519 C29.3562968,28.7909774 29.0460556,26.9300752 28.975855,25.1548872 C28.9282998,24.1894737 28.8128085,23.2082707 29.5940729,22.7210526 C30.445538,22.1932331 32.669311,22.1593985 33.0995725,22.9714286 Z M40.7740803,18.3857143 C39.4697084,15.3762406 34.4492352,15.132406 31.0750786,21.5774436 C30.4659188,21.5909774 29.7775002,21.7105263 29.1909858,22.0759398 C28.094951,22.7571429 28.1538289,23.9593985 28.1991196,24.924812 C28.2059132,24.9654135 28.2693202,28.5518797 29.4129102,31.1300752 C27.963608,32.5556391 27.014768,32.4315789 25.8847652,32.3616541 C25.4069484,32.3323308 25.3208961,33.0473684 25.7919193,33.1240602 C27.180079,33.3496241 28.4708638,33.0338346 29.7797648,31.8315789 C31.9106919,35.3030075 35.3391973,33.4781955 34.4650869,32.7338346 C34.3043049,32.5984962 34.0619997,32.6165414 33.9261277,32.7766917 C33.326026,33.4804511 31.4124942,33.193985 30.3323112,31.2654135 C31.8065233,29.593985 34.605488,24.1827068 33.7744038,22.6172932 C33.4211364,21.9473684 32.669311,21.7082707 31.9174855,21.6180451 C35.0063107,16.0195489 39.0734148,16.3806767 40.0720746,18.6879699 C41.1907547,21.2729323 38.9420718,30.9225564 38.9420718,31.1368421 C38.9420718,31.3488722 39.1141765,31.5180451 39.3247782,31.5180451 C39.7006909,31.5180451 39.7006909,31.1819549 39.802595,30.6947368 C41.1658448,24.1917293 41.4942023,20.0503759 40.7740803,18.3857143 Z" id="Fill-403" fill="#002B32"></path>
            <path d="M41.0231791,31.7390977 C41.0231791,32.7338346 40.2124758,33.5413534 39.213816,33.5413534 C38.2151562,33.5413534 37.4067174,32.7338346 37.4067174,31.7390977 C37.4067174,30.7443609 38.2151562,29.9390977 39.213816,29.9390977 C40.2124758,29.9390977 41.0231791,30.7443609 41.0231791,31.7390977" id="Fill-404" fill="#002B32"></path>
            <path d="M39.213816,33.0631579 C38.4823713,33.0631579 37.8845342,32.4699248 37.8845342,31.7390977 C37.8845342,31.0082707 38.4823713,30.4150376 39.213816,30.4150376 C39.9475252,30.4150376 40.5430978,31.0082707 40.5430978,31.7390977 C40.5430978,32.4699248 39.9475252,33.0631579 39.213816,33.0631579" id="Fill-405" fill="#99C5CC"></path>
            <polygon id="Fill-406" fill="#9DE5F4" points="37.4067174 60.8661654 44.9883793 60.8661654 44.9883793 49.6962406 37.4067174 49.6962406"></polygon>
            <path d="M38.1608074,118.139098 C37.5471185,117.942857 37.1440314,117.367669 36.9039907,116.884962 L36.4307029,118.026316 C36.4307029,118.026316 36.3310634,119.018797 37.1304441,119.64812 C37.9298249,120.275188 39.3542171,119.393233 39.6554002,119.075188 C39.8161822,118.906015 39.8501502,118.184211 39.8297694,117.24812 C39.4221532,117.771429 38.8039352,118.344361 38.1608074,118.139098" id="Fill-407" fill="#1C3135"></path>
            <path d="M28.8060149,115.317293 C28.8060149,115.317293 25.574524,116.251128 25.7149252,116.668421 C25.8553263,117.085714 32.6172267,116.442857 32.6172267,116.442857 L32.4428575,114.581955 C32.4428575,114.581955 29.4853753,115.790977 29.1253143,115.691729 C28.7675178,115.594737 28.8060149,115.317293 28.8060149,115.317293" id="Fill-408" fill="#1C3135"></path>
            <path d="M40.3166443,13.3946617 C40.3166443,13.3946617 43.3918824,14.8894737 44.4743299,16.7853383 C45.5545129,18.681203 46.181789,20.5533835 46.181789,20.5533835 L45.0993415,21.0360902 C45.0993415,21.0360902 44.9566758,20.0706767 44.5875566,19.3894737 L45.2646525,22.8969925 L43.8470538,23.3323308 C43.8470538,23.3323308 42.9797371,20.9142857 42.678554,19.475188 L43.4869928,23.3323308 L42.0535424,23.5172932 C42.0535424,23.5172932 41.1477286,22.1548872 41.1477286,20.8511278 L41.2836006,23.5172932 L38.5027521,23.2646617 C38.5027521,23.2646617 38.4348161,18.6541353 38.5638946,16.1284962 C38.6046562,15.3245865 38.7631736,14.4171429 38.9579236,13.9772932 C39.379127,13.0351128 40.3166443,13.3946617 40.3166443,13.3946617" id="Fill-409" fill="#002B32"></path>
            <path d="M40.8601327,13.5742105 L40.8239001,13.6211278 C40.4298711,14.146015 39.7867432,14.4218797 39.1322927,14.3447368 L38.7631736,14.301203 L38.2921504,12.954812 L40.3891095,12.2278195 L40.8601327,13.5742105" id="Fill-410" fill="#3BD7E6"></path>
            <path d="M40.9054233,2.02037594 C40.2781473,1.39601504 37.7350749,1.24759398 37.7350749,1.24759398 L37.544854,1.24759398 C36.7477378,0.944887218 32.5334389,7.18488722 33.0656045,10.5128571 C33.5955056,13.8406015 33.9759474,13.5002256 36.367296,13.916391 C38.7586445,14.3321053 40.5430978,12.5548872 41.1477286,10.5884211 C41.7523593,8.62195489 41.5326994,2.64473684 40.9054233,2.02037594" id="Fill-411" fill="#002B32"></path>
            <path d="M34.0506771,12.6685714 C33.880837,12.8384211 34.57152,17.7518797 33.8876306,19.1120301 C33.8876306,19.1120301 34.01218,21.6 35.2350287,21.7443609 C36.2970954,21.8706767 38.2242144,20.6165414 38.4370806,19.6466165 C38.722412,18.3406015 38.4370806,11.8175188 38.4370806,11.8175188 L34.0506771,12.6685714" id="Fill-412" fill="#FC7575"></path>
            <path d="M34.1231422,14.7020301 C35.744549,16.1634586 37.2731098,15.4984962 38.5027521,13.6662406 C38.4755777,12.742782 38.4393452,11.8707519 38.4370806,11.8175188 L34.0506771,12.6685714 C33.9804765,12.7380451 34.0574707,13.607594 34.1231422,14.7020301" id="Fill-413" fill="#FD5E5A"></path>
            <path d="M34.5624619,1.62857143 C34.5624619,1.62857143 32.508529,2.01857143 32.2639593,3.77255639 C32.0193895,5.52654135 31.6774448,6.98842105 32.0193895,9.03473684 C32.3613342,11.0810526 33.5841829,13.8096992 35.5905606,14.2481955 C37.5969383,14.6869173 39.7006909,11.3733835 39.7006909,9.57067669 C39.7006909,7.76796992 40.4344001,4.74699248 39.0643567,2.89533835 C37.6943133,1.04390977 34.5624619,1.62857143 34.5624619,1.62857143" id="Fill-414" fill="#FC7575"></path>
            <path d="M34.5624619,1.62857143 C34.5624619,1.62857143 32.508529,2.01857143 32.2639593,3.77255639 C32.0420349,5.36233083 31.7408518,6.7118797 31.9401308,8.47466165 C32.2684883,8.24977444 32.7327179,8.02353383 33.3849039,7.80924812 C35.6267932,7.07368421 37.6331708,2.75616541 37.7169586,2.57278195 L37.7531912,2.49586466 L37.7577202,2.41172932 C37.7690429,2.24075188 37.7463976,2.06120301 37.6965778,1.88097744 C36.2563338,1.31278195 34.5624619,1.62857143 34.5624619,1.62857143" id="Fill-415" fill="#FD5E5A"></path>
            <path d="M39.1617317,8.5475188 C39.1617317,8.5475188 39.9452607,7.64616541 40.3347606,7.25616541 C40.7265251,6.86661654 41.7048041,3.01714286 40.7265251,1.70165414 C39.7482462,0.386165414 37.875476,0.313082707 36.3786187,0.142556391 C34.8817613,-0.0281954887 32.5062645,1.10796992 32.3726569,3.32932331 C32.3726569,3.32932331 36.2268948,1.87218045 37.3025488,2.38398496 C38.3782027,2.89533835 38.819787,3.50458647 39.0394468,4.69827068 C39.2591067,5.89218045 39.1617317,8.5475188 39.1617317,8.5475188" id="Fill-416" fill="#002B32"></path>
            <path d="M39.1617317,8.5475188 C39.1617317,8.5475188 39.6848392,6.28533835 40.556685,6.8318797 C41.4285308,7.37796992 40.493278,9.88263158 39.6803101,9.88263158 C38.8673422,9.88263158 39.1617317,8.5475188 39.1617317,8.5475188" id="Fill-417" fill="#FC7575"></path>
            <path d="M40.0086676,7.30781955 C40.0086676,7.30781955 38.722412,9.36406015 39.6033159,9.13714286 C40.4864844,8.91022556 40.8352228,6.92526316 40.0086676,7.30781955" id="Fill-418" fill="#FD5E5A"></path>
            <path d="M40.6178275,13.4990977 C41.7750046,13.8719549 42.8936847,14.3803759 43.9263125,15.0464662 C44.4426264,15.384812 44.9227078,15.7592481 45.3959955,16.1496992 C45.8692832,16.5503008 46.3221901,16.9387218 46.7366,17.4586466 L46.3561582,17.7090226 C46.0255361,17.2691729 45.5726292,16.8392481 45.1310449,16.4465414 C44.6826671,16.0511278 44.2139084,15.6642857 43.7315625,15.3257143 C43.2424231,14.9862406 42.7261092,14.6846617 42.1894145,14.4169173 C41.6572488,14.1491729 41.1001733,13.9078195 40.5453623,13.7147368 L40.6178275,13.4990977" id="Fill-419" fill="#3BD7E6"></path>
            <path d="M40.3528769,13.6145865 C41.0684698,13.9357895 41.7478302,14.331203 42.4000162,14.7685714 C43.0499376,15.2072932 43.665891,15.6992481 44.2433474,16.2349624 C44.8253328,16.766391 45.3574984,17.3548872 45.8330507,17.9887218 C46.3244547,18.6112782 46.7116901,19.3082707 47.0740156,20.018797 L46.6573413,20.2015038 C46.342571,19.5067669 46.0028908,18.8142857 45.5545129,18.1849624 C45.1219868,17.5488722 44.6305828,16.9470677 44.0848299,16.3973684 C43.5436062,15.8431579 42.9570917,15.3272932 42.3343447,14.8610526 C41.7093331,14.3959398 41.0503536,13.9696241 40.3528769,13.6145865" id="Fill-420" fill="#3BD7E6"></path>
            <path d="M34.5443456,9.8862406 C34.5986944,9.32684211 34.634927,8.76609023 34.6303979,8.20172932 C34.5058485,8.91631579 34.4764096,9.43691729 34.4333834,9.95571429 C34.732302,10.0371429 35.092363,10.203609 35.5407408,10.0344361 C35.1987961,10.0998496 34.8568514,10.0021805 34.5443456,9.8862406" id="Fill-421" fill="#172866"></path>
            <path d="M35.6562321,8.14849624 C35.7581362,7.82616541 36.0344094,7.51781955 36.4125867,7.41744361 C37.0828889,7.24263158 37.4927697,8.20511278 37.9524702,8.19586466 C37.6241127,8.3643609 37.0942116,7.80180451 36.7318861,7.65857143 C36.5348715,7.57917293 36.3605024,7.63421053 36.1657524,7.72556391 C35.9755315,7.82255639 35.8079559,7.97323308 35.6562321,8.14849624" id="Fill-422" fill="#172866"></path>
            <path d="M36.8722872,7.85909774 C36.8722872,8.06255639 36.7250924,8.22721805 36.5439297,8.22721805 C36.3650314,8.22721805 36.2178367,8.06255639 36.2178367,7.85909774 C36.2178367,7.65586466 36.3650314,7.49120301 36.5439297,7.49120301 C36.7250924,7.49120301 36.8722872,7.65586466 36.8722872,7.85909774" id="Fill-423" fill="#172866"></path>
            <path d="M34.1639038,8.35804511 C34.0484125,8.04045113 33.7585521,7.74473684 33.3758458,7.6612782 C32.6987499,7.51714286 32.3318953,8.49676692 31.8721948,8.50827068 C32.2096104,8.6618797 32.7123371,8.07609023 33.067869,7.91661654 C33.262619,7.82842105 33.4392527,7.87556391 33.6362672,7.95834586 C33.8310172,8.04676692 34.0053864,8.18954887 34.1639038,8.35804511" id="Fill-424" fill="#172866"></path>
            <path d="M32.936526,8.12323308 C32.9478487,8.32646617 33.0995725,8.4843609 33.2807353,8.4762406 C33.4618981,8.4681203 33.6000347,8.29714286 33.5909765,8.09413534 C33.5819184,7.89112782 33.42793,7.73300752 33.2467673,7.74112782 C33.067869,7.74924812 32.9297324,7.92045113 32.936526,8.12323308" id="Fill-425" fill="#172866"></path>
            <path d="M35.418456,6.58917293 C35.3459909,6.54180451 35.9302408,5.95578947 36.6345111,5.88969925 C37.3365168,5.82338346 38.0951359,6.58917293 38.0951359,6.58917293 C38.0951359,6.58917293 37.0602436,5.97473684 36.6231884,6.17345865 C36.1861332,6.37172932 35.8238077,6.85105263 35.418456,6.58917293" id="Fill-426" fill="#172866"></path>
            <path d="M34.4492352,11.8912782 C34.372241,11.8806767 34.3926218,11.7654135 34.4650869,11.7791729 C34.4764096,11.7803008 35.6313222,11.9354887 36.5914849,11.1809774 C36.6503628,11.1349624 36.7205634,11.223609 36.6616855,11.2700752 C36.011764,11.7816541 35.0833049,11.9871429 34.4492352,11.8912782" id="Fill-427" fill="#172866"></path>
            <path d="M35.3120228,12.262782 C35.2803194,12.262782 35.257674,12.24 35.2554095,12.2102256 C35.2440868,12.0690226 36.0955518,12.1705263 36.4103221,11.6544361 C36.4510838,11.5903759 36.5461942,11.6496992 36.5076971,11.7135338 C36.2155722,12.1896992 35.3527845,12.2596241 35.3142874,12.2623308 C35.3142874,12.262782 35.3120228,12.262782 35.3120228,12.262782" id="Fill-428" fill="#172866"></path>
            <path d="M35.5294182,7.60466165 C35.3324037,7.60466165 35.1716217,7.76503759 35.1716217,7.96195489 L35.1716217,8.54819549 C35.1716217,8.74533835 35.3324037,8.90571429 35.5294182,8.90571429 L38.0317289,8.90571429 C38.2287434,8.90571429 38.3895254,8.74533835 38.3895254,8.54819549 L38.3895254,7.96195489 C38.3895254,7.76503759 38.2287434,7.60466165 38.0317289,7.60466165 L35.5294182,7.60466165 Z M38.0317289,9.13263158 L35.5294182,9.13263158 C35.2078543,9.13263158 34.9429037,8.87052632 34.9429037,8.54819549 L34.9429037,7.96195489 C34.9429037,7.64007519 35.2078543,7.37774436 35.5294182,7.37774436 L38.0317289,7.37774436 C38.3532928,7.37774436 38.6182434,7.64007519 38.6182434,7.96195489 L38.6182434,8.54819549 C38.6182434,8.87052632 38.3532928,9.13263158 38.0317289,9.13263158 Z" id="Fill-429" fill="#000000"></path>
            <path d="M31.657064,7.60466165 C31.5121338,7.60466165 31.394378,7.72263158 31.394378,7.86744361 L31.394378,8.64293233 C31.394378,8.7875188 31.5121338,8.90571429 31.657064,8.90571429 L33.9012178,8.90571429 C34.046148,8.90571429 34.1661683,8.7875188 34.1661683,8.64293233 L34.1661683,7.86744361 C34.1661683,7.72263158 34.046148,7.60466165 33.9012178,7.60466165 L31.657064,7.60466165 Z M33.9012178,9.13263158 L31.657064,9.13263158 C31.3875844,9.13263158 31.16566,8.91293233 31.16566,8.64293233 L31.16566,7.86744361 C31.16566,7.59744361 31.3875844,7.37774436 31.657064,7.37774436 L33.9012178,7.37774436 C34.1729619,7.37774436 34.3926218,7.59744361 34.3926218,7.86744361 L34.3926218,8.64293233 C34.3926218,8.91293233 34.1729619,9.13263158 33.9012178,9.13263158 Z" id="Fill-430" fill="#000000"></path>
            <path d="M34.3745055,0.544736842 C32.4904127,0.959097744 31.9220145,3.84541353 30.382131,5.38037594 C28.8399829,6.91533835 29.2317474,9.13218045 29.9654566,10.5938346 C30.6991658,12.0557143 31.8744593,11.1056391 31.8744593,11.1056391 C31.8744593,11.1056391 31.2607704,11.4466917 30.8712705,10.2284211 C30.479506,9.0106015 31.1633954,8.06030075 33.2422382,7.37796992 C35.321081,6.69609023 37.3025488,2.38398496 37.3025488,2.38398496 C37.3546331,1.54082707 36.2563338,0.130827068 34.3745055,0.544736842" id="Fill-431" fill="#034147"></path>
            <path d="M31.8744593,11.1056391 C31.1611309,11.5204511 30.153413,9.77842105 30.8893867,8.64135338 C31.4238169,7.76165414 32.5945813,7.3912782 33.5298341,7.00533835 C35.0131043,6.15699248 36.4374966,3.81496241 37.3025488,2.38398496 C36.6752727,4.09172932 35.3482554,6.45992481 33.7472294,7.40390977 L33.3622585,7.57037594 C32.965965,7.72917293 31.7612326,8.05240602 31.1792472,8.83330827 C30.7104885,9.44639098 30.9346774,10.3984962 31.2449187,10.8493985 C31.3785262,11.043609 31.6208314,11.1967669 31.8744593,11.1056391" id="Fill-432" fill="#023135"></path>
            <polygon id="Fill-433" fill="#000000" points="34.2703369 8.31473684 35.0946275 8.31473684 35.0946275 8.09030075 34.2703369 8.09030075"></polygon>
            <polyline id="Fill-434" fill="#013C66" points="43.4167922 40.4210526 52.7195004 49.8834586 66.6078912 33.8954887 56.847747 25.9984962 43.4167922 40.4210526"></polyline>
            <path d="M57.2780086,27.5368421 C56.4265436,28.3849624 45.1853938,40.2383459 45.1853938,40.2383459 L52.7489394,47.8398496 L64.5335775,34.0466165 L57.2780086,27.5368421" id="Fill-435" fill="#FFDA88"></path>
            <path d="M45.2533298,40.2360902 L52.7466748,47.7676692 L64.4633769,34.0511278 L57.2802731,27.6045113 C56.2476454,28.6488722 45.9168385,39.5368421 45.2533298,40.2360902 Z M52.7512039,47.9120301 L52.7149714,47.8736842 L45.1174577,40.2383459 L45.1491612,40.2045113 C45.2623879,40.0849624 56.4016337,28.3421053 57.2440406,27.5030075 L57.2757441,27.4691729 L57.3119766,27.5007519 L64.6015136,34.0421053 L64.5698101,34.0781955 L52.7512039,47.9120301 Z" id="Fill-436" fill="#0071BC"></path>
            <path d="M55.174256,45.4398496 C55.174256,45.4398496 55.3961803,45.6609023 56.0687471,46.0759398 C56.7209331,46.4796992 57.3753836,45.8481203 57.5135202,45.7263158 C57.7762062,45.493985 58.1317382,45.0541353 58.3106364,44.7699248 C58.4872701,44.4879699 58.5778515,44.3007519 58.6412585,44.0075188 C58.7318398,43.5766917 57.1081685,42.2458647 56.9564447,42.3541353 C56.8545406,42.4263158 56.7752819,42.5255639 56.8092499,42.6360902 C56.8454825,42.7533835 57.7399737,44.0503759 57.7399737,44.0503759 C57.7399737,44.0503759 56.4582471,42.787218 56.0823343,42.8255639 C55.7064216,42.8661654 55.7562414,43.093985 55.8536163,43.2022556 C55.9509913,43.3082707 57.1579883,44.8308271 57.1579883,44.8308271 C57.1579883,44.8308271 55.6316919,43.6646617 55.3871222,43.6894737 C55.1425525,43.7165414 54.9749769,44.0323308 55.5909303,44.5511278 C55.9351396,44.8421053 56.5012732,45.5390977 56.5012732,45.5390977 C56.5012732,45.5390977 55.3508897,44.8263158 54.984035,44.8646617 C54.6171804,44.9052632 55.174256,45.4398496 55.174256,45.4398496" id="Fill-437" fill="#FC7575"></path>
        </g>
    </g>
</svg>