<?xml version="1.0" encoding="UTF-8"?>
<svg width="99px" height="99px" viewBox="0 0 99 99" version="1.1" xmlns="http://www.w3.org/2000/svg" xmlns:xlink="http://www.w3.org/1999/xlink">
    <!-- Generator: Sketch 52.5 (67469) - http://www.bohemiancoding.com/sketch -->
    <title>patient_portal_icon</title>
    <desc>Created with Sketch.</desc>
    <defs>
        <filter x="-9.2%" y="-11.2%" width="118.3%" height="122.4%" filterUnits="objectBoundingBox" id="filter-1">
            <feOffset dx="0" dy="0" in="SourceAlpha" result="shadowOffsetOuter1"></feOffset>
            <feGaussianBlur stdDeviation="1.5" in="shadowOffsetOuter1" result="shadowBlurOuter1"></feGaussianBlur>
            <feColorMatrix values="0 0 0 0 0   0 0 0 0 0   0 0 0 0 0  0 0 0 0.5 0" type="matrix" in="shadowBlurOuter1" result="shadowMatrixOuter1"></feColorMatrix>
            <feMerge>
                <feMergeNode in="shadowMatrixOuter1"></feMergeNode>
                <feMergeNode in="SourceGraphic"></feMergeNode>
            </feMerge>
        </filter>
    </defs>
    <g id="Page-1" stroke="none" stroke-width="1" fill="none" fill-rule="evenodd">
        <g id="patient_portal_icon">
            <rect id="Rectangle" stroke="#FFFFFF" stroke-width="1.53" x="0.765" y="0.765" width="97.47" height="97.47" rx="48.735"></rect>
            <g id="Logo" filter="url(#filter-1)" transform="translate(15.230769, 21.323077)" fill="#FFFFFF">
                <path d="M41.3916194,40.9643639 C43.9267409,39.7241441 46.4157692,37.0140342 47.522004,34.3498584 C48.3516802,32.2368914 48.2594939,27.6894188 47.3376316,25.5305177 C46.9227935,24.5659023 45.9548381,22.95821 45.1251619,21.9476606 C43.7884615,20.2940342 43.6962753,20.0184298 44.2954858,19.421287 C44.8946964,18.8241441 45.0790688,18.8241441 46.0009312,19.467221 C46.5540486,19.8346936 47.0149798,20.6615067 47.0149798,21.3045837 L47.0149798,22.4070012 L52.5461538,22.4070012 C55.6343927,22.4070012 58.0773279,22.223265 58.0773279,21.9935947 C58.0773279,21.7639243 56.6945344,20.3859023 54.9890891,18.9619463 C44.6181377,10.3263419 28.669919,2.6553529 16.501336,0.542385865 C12.7217004,-0.146625124 11.8459312,-0.146625124 10.601417,0.358649601 C8.25066802,1.32326499 7.83582996,2.93095729 7.83582996,11.061287 C7.83582996,22.2691991 7.92801619,22.4070012 18.3911538,22.4070012 L25.2590283,22.4070012 L25.5816802,20.0643639 C25.8582389,17.9973309 25.7660526,17.6298584 24.8441903,16.5733749 C23.9223279,15.6546936 23.7379555,15.0116166 23.8301417,12.8986496 C23.9684211,8.39711114 25.904332,8.39711114 25.9965182,12.8527155 C26.0426113,15.241287 26.0887045,15.287221 27.5175911,15.4250232 C28.9003846,15.5628254 29.038664,15.4709573 29.5456883,13.5876606 C29.822247,12.485243 30.1448988,11.3368914 30.237085,11.0153529 C30.5136437,10.0507375 31.5737854,10.6478804 31.7120648,11.8421661 C32.0347166,13.9551331 30.9745749,16.2977705 29.2691296,17.3083199 C28.1168016,17.9973309 27.6558704,18.5485397 27.6558704,19.421287 C27.6558704,20.0643639 26.9644737,21.534254 26.0887045,22.7285397 C24.0145142,25.6683199 23.3231174,27.9650232 23.6457692,31.1344738 C24.1988866,37.6111771 29.2691296,42.1127155 35.9987247,42.1586496 C38.3033806,42.1586496 39.5478947,41.8830452 41.3916194,40.9643639 Z" id="Path" fill-rule="nonzero" transform="translate(32.956579, 21.079325) scale(1, -1) translate(-32.956579, -21.079325) "></path>
                <path d="M62.2570269,57.4175824 C67.6499217,56.5448352 70.0006707,54.4778022 70.0006707,50.5274725 C70.0006707,47.9092308 68.0186666,43.6832967 65.437452,40.7894505 L63.5476342,38.6764835 L63.5476342,31.4648352 L63.5476342,24.2531868 L62.2109338,22.9210989 L60.8742334,21.589011 L53.9141727,21.589011 L46.9541119,21.589011 L46.9541119,14.6989011 C46.9541119,7.94659341 46.9080188,7.71692308 45.801784,6.66043956 C44.6955492,5.51208791 44.6494561,5.51208791 35.7534844,5.51208791 L26.8114196,5.51208791 L25.7051848,6.70637363 C24.7372294,7.76285714 24.59895,8.40593407 24.4606707,12.1265934 L24.2762982,16.3984615 L20.8654075,15.5716484 C11.3241322,13.3208791 3.11955729,14.3773626 0.814901423,18.098022 C-1.12100951,21.2674725 0.492249601,26.8714286 4.59453705,31.327033 L6.43826175,33.3021978 L5.05546822,30.7758242 C1.59848442,24.3450549 3.35002288,20.7162637 10.448363,19.7516484 C19.6669864,18.5114286 35.200367,23.701978 48.7978366,32.5672527 C53.7298002,35.7826374 61.5656302,43.4995604 63.1327962,46.6230769 C64.653869,49.7465934 64.653869,52.7782418 63.1327962,54.3859341 C61.888282,55.6720879 58.3852051,56.9123077 55.7578974,57.0041758 L54.0985451,57.0501099 L55.4813387,57.4175824 C57.4633427,57.9228571 59.2609743,57.9228571 62.2570269,57.4175824 Z" id="Path" transform="translate(35.000335, 31.654313) scale(1, -1) translate(-35.000335, -31.654313) "></path>
            </g>
        </g>
    </g>
</svg>