<?xml version="1.0" encoding="UTF-8"?>
<svg width="351px" height="290px" viewBox="0 0 351 290" version="1.1" xmlns="http://www.w3.org/2000/svg" xmlns:xlink="http://www.w3.org/1999/xlink">
    <!-- Generator: Sketch 52.5 (67469) - http://www.bohemiancoding.com/sketch -->
    <title>patient_portal_secondary_icon</title>
    <desc>Created with Sketch.</desc>
    <g id="Page-1" stroke="none" stroke-width="1" fill="none" fill-rule="evenodd">
        <g id="patient_portal_secondary_icon" transform="translate(-76.000000, -106.000000)">
            <rect id="Rectangle" x="0" y="0" width="495" height="495" rx="247.5"></rect>
            <g id="Logo" transform="translate(76.153846, 106.615385)" fill="#323545">
                <path d="M206.958097,204.821819 C219.633704,198.620721 232.078846,185.070171 237.61002,171.749292 C241.758401,161.184457 241.29747,138.447094 236.688158,127.652589 C234.613968,122.829512 229.77419,114.79105 225.62581,109.738303 C218.942308,101.470171 218.481377,100.092149 221.477429,97.1064348 C224.473482,94.1207205 225.395344,94.1207205 230.004656,97.3361051 C232.770243,99.1734678 235.074899,103.307534 235.074899,106.522918 L235.074899,112.035006 L262.730769,112.035006 C278.171964,112.035006 290.38664,111.116325 290.38664,109.967973 C290.38664,108.819622 283.472672,101.929512 274.945445,94.8097315 C223.090688,51.6317095 143.349595,13.2767645 82.5066802,2.71192932 C63.608502,-0.733125622 59.2296559,-0.733125622 53.007085,1.793248 C41.2533401,6.61632493 39.1791498,14.6547865 39.1791498,55.3064348 C39.1791498,111.345995 39.640081,112.035006 91.9557692,112.035006 L126.295142,112.035006 L127.908401,100.321819 C129.291194,89.9866546 128.830263,88.149292 124.220951,82.8668744 C119.61164,78.2734678 118.689777,75.0580832 119.150709,64.493248 C119.842105,41.9855557 129.52166,41.9855557 129.982591,64.2635777 C130.213057,76.2064348 130.443522,76.4361051 137.587955,77.1251161 C144.501923,77.8141271 145.19332,77.3547865 147.728441,67.9383029 C149.111235,62.426215 150.724494,56.6844568 151.185425,55.0767645 C152.568219,50.2536876 157.868927,53.2394019 158.560324,59.2108304 C160.173583,69.7756656 154.872874,81.4888524 146.345648,86.5415997 C140.584008,89.9866546 138.279352,92.7426986 138.279352,97.1064348 C138.279352,100.321819 134.822368,107.67127 130.443522,113.642699 C120.072571,128.3416 116.615587,139.825116 118.228846,155.672369 C120.994433,188.055885 146.345648,210.563578 179.993623,210.793248 C191.516903,210.793248 197.739474,209.415226 206.958097,204.821819 Z" id="Path" fill-rule="nonzero" transform="translate(164.782895, 105.396624) scale(1, -1) translate(-164.782895, -105.396624) "></path>
                <path d="M311.285135,287.087912 C338.249608,282.724176 350.003353,272.389011 350.003353,252.637363 C350.003353,239.546154 340.093333,218.416484 327.18726,203.947253 L317.738171,193.382418 L317.738171,157.324176 L317.738171,121.265934 L311.054669,114.605495 L304.371167,107.945055 L269.570863,107.945055 L234.77056,107.945055 L234.77056,73.4945055 C234.77056,39.732967 234.540094,38.5846154 229.00892,33.3021978 C223.477746,27.5604396 223.24728,27.5604396 178.767422,27.5604396 L134.057098,27.5604396 L128.525924,33.5318681 C123.686147,38.8142857 122.99475,42.0296703 122.303353,60.632967 L121.381491,81.9923077 L104.327037,77.8582418 C56.620661,66.6043956 15.5977865,71.8868132 4.07450712,90.4901099 C-5.60504754,106.337363 2.46124801,134.357143 22.9726853,156.635165 L32.1913087,166.510989 L25.2773411,153.879121 C7.99242209,121.725275 16.7501144,103.581319 52.2418148,98.7582418 C98.3349322,92.5571429 176.001835,118.50989 243.989183,162.836264 C268.649001,178.913187 307.828151,217.497802 315.663981,233.115385 C323.269345,248.732967 323.269345,263.891209 315.663981,271.92967 C309.44141,278.36044 291.926025,284.561538 278.789487,285.020879 L270.492726,285.250549 L277.406693,287.087912 C287.316714,289.614286 296.304871,289.614286 311.285135,287.087912 Z" id="Path" transform="translate(175.001677, 158.271566) scale(1, -1) translate(-175.001677, -158.271566) "></path>
            </g>
        </g>
    </g>
</svg>